<?xml version="1.0" encoding="UTF-8"?>
<!-- Created with Inkscape (http://www.inkscape.org/) -->
<svg width="559.53mm" height="91.741mm" version="1.1" viewBox="0 0 559.53 91.741" xmlns="http://www.w3.org/2000/svg">
 <defs>
  <linearGradient id="linearGradient1112" x1="-64.958" x2="594.62" y1="166.2" y2="166.2" gradientUnits="userSpaceOnUse">
   <stop stop-color="#663cf0" offset="0"/>
   <stop stop-color="#1f1f1f" offset="1"/>
  </linearGradient>
 </defs>
 <g transform="translate(-61.252 -91.096)">
  <path transform="matrix(.22914 .13229 -.13229 .22914 97.673 84.106)" d="m29.337 308.87-82.37-142.67 82.37-142.67 164.74-1e-6 82.37 142.67-82.37 142.67z" fill="url(#linearGradient1112)" fill-rule="evenodd" stroke="#1f1f1f" stroke-linejoin="round" stroke-width="17.254" style="paint-order:normal"/>
 </g>
 <text transform="matrix(.44095 0 0 .44095 -60.784 -2.6525)" fill="#000000" font-family="sans-serif" font-size="192px" style="line-height:1.25;shape-inside:url(#rect3496);white-space:pre" xml:space="preserve"/>
 <g transform="matrix(.44039 0 0 .44039 -61.432 -2.5586)" style="shape-inside:url(#rect6138);white-space:pre" aria-label="JASON KYLE SMITH">
  <path d="m359.22 177.94q-5.76 0-9.792-0.768v-19.2q3.072 0.768 6.912 0.768 6.336 0 9.408-3.072 3.072-3.264 3.072-9.792v-103.1h21.12v102.53q0 16.512-7.68 24.576-7.488 8.064-23.04 8.064z"/>
  <path d="m421.05 42.769h28.608l21.888 134.4h-21.12l-3.84-26.688v0.384h-24l-3.84 26.304h-19.584zm23.04 89.856-9.408-66.432h-0.384l-9.216 66.432z"/>
  <path d="m508.6 179.09q-15.36 0-23.232-8.64-7.872-8.832-7.872-25.152v-7.68h19.968v9.216q0 13.056 10.944 13.056 5.376 0 8.064-3.072 2.88-3.264 2.88-10.368 0-8.448-3.84-14.784-3.84-6.528-14.208-15.552-13.056-11.52-18.24-20.736-5.184-9.408-5.184-21.12 0-15.936 8.064-24.576 8.064-8.832 23.424-8.832 15.168 0 22.848 8.832 7.872 8.64 7.872 24.96v5.568h-19.968v-6.912q0-6.912-2.688-9.984-2.688-3.264-7.872-3.264-10.56 0-10.56 12.864 0 7.296 3.84 13.632 4.032 6.336 14.4 15.36 13.248 11.52 18.24 20.928t4.992 22.08q0 16.512-8.256 25.344-8.064 8.832-23.616 8.832z"/>
  <path d="m583.09 179.09q-15.552 0-23.808-8.832t-8.256-24.96v-70.656q0-16.128 8.256-24.96t23.808-8.832 23.808 8.832 8.256 24.96v70.656q0 16.128-8.256 24.96t-23.808 8.832zm0-19.2q10.944 0 10.944-13.248v-73.344q0-13.248-10.944-13.248t-10.944 13.248v73.344q0 13.248 10.944 13.248z"/>
  <path d="m629.37 42.769h26.496l20.544 80.448h0.384v-80.448h18.816v134.4h-21.696l-25.344-98.112h-0.384v98.112h-18.816z"/>
  <path d="m742.07 42.769h21.12v56.64l26.88-56.64h21.12l-25.152 49.344 25.536 85.056h-22.08l-17.856-59.904-8.448 17.088v42.816h-21.12z"/>
  <path d="m840.95 119.95-25.536-77.184h22.464l14.4 49.344h0.384l14.4-49.344h20.544l-25.536 77.184v57.216h-21.12z"/>
  <path d="m897.21 42.769h21.12v115.2h34.752v19.2h-55.872z"/>
  <path d="m963.25 42.769h57.6v19.2h-36.48v35.52h28.992v19.2h-28.992v41.28h36.48v19.2h-57.6z"/>
  <path d="m1091.1 179.09q-15.36 0-23.232-8.64-7.872-8.832-7.872-25.152v-7.68h19.968v9.216q0 13.056 10.944 13.056 5.376 0 8.064-3.072 2.88-3.264 2.88-10.368 0-8.448-3.84-14.784-3.84-6.528-14.208-15.552-13.056-11.52-18.24-20.736-5.184-9.408-5.184-21.12 0-15.936 8.064-24.576 8.064-8.832 23.424-8.832 15.168 0 22.848 8.832 7.872 8.64 7.872 24.96v5.568h-19.968v-6.912q0-6.912-2.688-9.984-2.688-3.264-7.872-3.264-10.56 0-10.56 12.864 0 7.296 3.84 13.632 4.032 6.336 14.4 15.36 13.248 11.52 18.24 20.928t4.992 22.08q0 16.512-8.256 25.344-8.064 8.832-23.616 8.832z"/>
  <path d="m1135.1 42.769h30.144l13.44 96.192h0.384l13.44-96.192h30.144v134.4h-19.968v-101.76h-0.384l-15.36 101.76h-17.664l-15.36-101.76h-0.384v101.76h-18.432z"/>
  <path d="m1238.4 42.769h21.12v134.4h-21.12z"/>
  <path d="m1291.8 61.969h-22.08v-19.2h65.28v19.2h-22.08v115.2h-21.12z"/>
  <path d="m1345.1 42.769h21.12v54.72h22.656v-54.72h21.12v134.4h-21.12v-60.48h-22.656v60.48h-21.12z"/>
 </g>
</svg>
